<svg xmlns="http://www.w3.org/2000/svg" id="Calque_2" data-name="Calque 2" viewBox="0 0 122.27 167.54"><defs><style>.cls-1{fill:#e03b36;stroke-width:0}</style></defs><g id="Calque_1-2" data-name="Calque 1"><path d="m71.44,89.84c-.02,1.5-.22,13.51-3.18,21.82-.59,1.65-1.6,4.5-3.89,7.69-1.27,1.78-2.53,3.09-3.42,3.94-1.23,1.32-2.98,2.88-5.32,4.26-4.64,2.73-9.13,3.23-11.6,3.31-1.86.14-5.25.15-9.04-1.4-2.61-1.06-4.49-2.49-5.7-3.57-2.42-1.86-7.29-6.08-9.4-12.09-.84-2.39-1.31-5.25-1.35-5.49-.53-3.32-.48-6.03-.39-7.6.25-4.16,1.2-7.57,2.09-9.99.18-.48.38-1.03.38-1.03.58-1.51,1.12-2.75,1.52-3.64.2-.47.41-.94.63-1.41,4.72-10.4,12.03-21.61,23.54-32.44-7.31,4.4-14.39,8.44-20.94,13.32-5.76,4.29-9.92,7.87-14.34,13.87-7.09,9.63-9.28,18.84-9.86,21.6C-.39,108.4,0,114.3.18,116.42c.21,2.39.94,8.87,4.29,16.46.97,2.21,5.29,12.18,15.89,20.63,14.12,11.26,30.31,15.51,48.13,13.57,5.72-.62,11.1-1.98,16.15-4.03,3.48-1.42,12.16-5.31,20.5-13.82,4.57-4.66,7.31-8.95,8.36-10.69,1.44-2.36,6.33-10.77,8.11-23.02.59-4.08.69-7.54.66-10-.19-6.52-1.21-15.42-4.83-25.25-5.47-14.86-14.35-24.95-19.02-30.25-.29-.33-5.87-7.27-18.62-19.56-4.59-4.42-6.24-5.47-6.83-6.03-4.28-4.06-11.83-9.71-17.85-24.43-.03,1.14-.06,2.87.02,4.96.49,13.27,4.69,22.94,5.4,25.59,4.74,17.8,9.89,35.51,10.91,54.06v5.23Z" class="cls-1"/></g></svg>